<?xml version="1.0" encoding="UTF-8" standalone="no"?>
<svg
   xmlns:dc="http://purl.org/dc/elements/1.1/"
   xmlns:cc="http://creativecommons.org/ns#"
   xmlns:rdf="http://www.w3.org/1999/02/22-rdf-syntax-ns#"
   xmlns:svg="http://www.w3.org/2000/svg"
   xmlns="http://www.w3.org/2000/svg"
   xmlns:sodipodi="http://sodipodi.sourceforge.net/DTD/sodipodi-0.dtd"
   xmlns:inkscape="http://www.inkscape.org/namespaces/inkscape"
   version="1.1"
   id="svg2"
   sodipodi:version="0.32"
   inkscape:version="1.0.1 (3bc2e813f5, 2020-09-07)"
   inkscape:output_extension="org.inkscape.output.svg.inkscape"
   sodipodi:docname="preferences.svg"
   x="0px"
   y="0px"
   width="900"
   height="650"
   viewBox="0 0 900 650"
   enable-background="new 0 0 256 256"
   xml:space="preserve"><metadata
   id="metadata42"><rdf:RDF><cc:Work
       rdf:about=""><dc:format>image/svg+xml</dc:format><dc:type
         rdf:resource="http://purl.org/dc/dcmitype/StillImage" /><dc:title>facebook web</dc:title></cc:Work></rdf:RDF></metadata><defs
   id="defs40"><clipPath
     id="clipPath18"><path
       d="M 0,38 H 38 V 0 H 0 Z"
       id="path20" /></clipPath></defs><sodipodi:namedview
   pagecolor="#ffffff"
   bordercolor="#666666"
   borderopacity="1"
   objecttolerance="10"
   gridtolerance="10"
   guidetolerance="10"
   inkscape:pageopacity="0"
   inkscape:pageshadow="2"
   inkscape:window-width="1684"
   inkscape:window-height="924"
   id="namedview38"
   showgrid="false"
   inkscape:zoom="1.1292308"
   inkscape:cx="450"
   inkscape:cy="325"
   inkscape:window-x="0"
   inkscape:window-y="0"
   inkscape:window-maximized="0"
   inkscape:current-layer="svg2"
   inkscape:document-rotation="0" />
<title
   id="title2910">facebook web</title>

<linearGradient
   id="SVGID_1_"
   gradientUnits="userSpaceOnUse"
   x1="76.999496"
   y1="1766.167"
   x2="76.999496"
   y2="1893.7955"
   gradientTransform="translate(51,-1755)">
	<stop
   offset="0"
   style="stop-color:#FFFFFF;stop-opacity:0.85"
   id="stop4" />
	<stop
   offset="0.66"
   style="stop-color:#FFFFFF;stop-opacity:0"
   id="stop6" />
</linearGradient>


<rect
   style="fill:#bc7b1a;stroke-width:57.178;stroke-linecap:round;stroke-linejoin:round"
   id="rect848"
   width="900"
   height="650"
   x="0"
   y="0"
   ry="24.189501" /><circle
   style="fill:#503007;fill-opacity:1;stroke:none;stroke-width:43.3741;stroke-linecap:round;stroke-linejoin:round;stroke-miterlimit:4;stroke-dasharray:none;stroke-opacity:1"
   id="path990"
   cx="450"
   cy="325"
   r="274.4278" /><rect
   style="fill:#ff6600;stroke-width:12.26;stroke-miterlimit:10"
   id="rect875"
   width="395.06497"
   height="290.89282"
   x="252.46753"
   y="179.12555" /><g
   id="g25"
   transform="matrix(1.6668845,0,0,1.6417669,236.6388,67.833752)">
	
		<linearGradient
   id="SVGID_2_"
   gradientUnits="userSpaceOnUse"
   x1="76.999496"
   y1="1893.001"
   x2="76.999496"
   y2="2000.5122"
   gradientTransform="translate(51,-1755)">
		<stop
   offset="0"
   style="stop-color:#000000;stop-opacity:0.15"
   id="stop18" />
		<stop
   offset="0.6626"
   style="stop-color:#000000;stop-opacity:0"
   id="stop20" />
	</linearGradient>
	<path
   fill="url(#SVGID_2_)"
   d="m 9.496,115.401 v 94.605 c 0,19.6 15.888,35.486 35.487,35.486 h 164.033 c 19.604,0 35.488,-15.889 37.488,-34.819 V 114.721 C 209.725,129.902 169.43,138.297 127.167,138.297 85.542,138.298 45.825,130.152 9.496,115.401 Z"
   id="path23"
   style="fill:url(#SVGID_2_)" />
</g>


<circle
   style="fill:#ffffff;fill-opacity:1;stroke-width:20;stroke-linecap:round;stroke-linejoin:round"
   id="path917"
   cx="299.31882"
   cy="223.16077"
   r="23.024523" /><circle
   style="fill:#ffffff;fill-opacity:1;stroke-width:20;stroke-linecap:round;stroke-linejoin:round"
   id="circle919"
   cx="299.31882"
   cy="289.28247"
   r="23.024523" /><circle
   style="fill:#ffffff;fill-opacity:1;stroke-width:20;stroke-linecap:round;stroke-linejoin:round"
   id="circle921"
   cx="299.31882"
   cy="355.40417"
   r="23.024523" /><circle
   style="fill:#ffffff;fill-opacity:1;stroke-width:20;stroke-linecap:round;stroke-linejoin:round"
   id="circle923"
   cx="299.31882"
   cy="421.52588"
   r="23.024523" /><path
   id="rect925"
   style="fill:#ffffff;fill-opacity:1;stroke-width:20;stroke-linecap:round;stroke-linejoin:round"
   d="M 371.04906,202.79292 H 586.2398 c 11.28379,0 20.36785,9.08406 20.36785,20.36785 0,11.28379 -9.08406,20.36785 -20.36785,20.36785 H 371.04906 c -11.28379,0 -20.36785,-9.08406 -20.36785,-20.36785 0,-11.28379 9.08406,-20.36785 20.36785,-20.36785 z" /><path
   id="rect929"
   style="fill:#ffffff;fill-opacity:1;stroke-width:20;stroke-linecap:round;stroke-linejoin:round"
   d="M 371.04906,268.91461 H 586.2398 c 11.28379,0 20.36785,9.08406 20.36785,20.36785 0,11.28379 -9.08406,20.36785 -20.36785,20.36785 H 371.04906 c -11.28379,0 -20.36785,-9.08406 -20.36785,-20.36785 0,-11.28379 9.08406,-20.36785 20.36785,-20.36785 z" /><path
   id="rect931"
   style="fill:#ffffff;fill-opacity:1;stroke-width:20;stroke-linecap:round;stroke-linejoin:round"
   d="M 371.04906,335.03632 H 586.2398 c 11.28379,0 20.36785,9.08406 20.36785,20.36784 0,11.28379 -9.08406,20.36785 -20.36785,20.36785 H 371.04906 c -11.28379,0 -20.36785,-9.08406 -20.36785,-20.36785 0,-11.28378 9.08406,-20.36784 20.36785,-20.36784 z" /><path
   id="rect933"
   style="fill:#ffffff;fill-opacity:1;stroke-width:20;stroke-linecap:round;stroke-linejoin:round"
   d="M 371.04906,401.15802 H 586.2398 c 11.28379,0 20.36785,9.08406 20.36785,20.36785 0,11.28378 -9.08406,20.36784 -20.36785,20.36784 H 371.04906 c -11.28379,0 -20.36785,-9.08406 -20.36785,-20.36784 0,-11.28379 9.08406,-20.36785 20.36785,-20.36785 z" /></svg>
